<?xml version="1.0" ?><!DOCTYPE svg  PUBLIC '-//W3C//DTD SVG 1.1//EN'  'http://www.w3.org/Graphics/SVG/1.1/DTD/svg11.dtd'><svg enable-background="new 0 0 26 26" id="Слой_1" version="1.1" viewBox="0 0 26 26" xml:space="preserve" xmlns="http://www.w3.org/2000/svg" xmlns:xlink="http://www.w3.org/1999/xlink"><g><path d="M24.25,1H1.75C1.3359375,1,1,1.3359375,1,1.75S1.3359375,2.5,1.75,2.5h22.5   C24.6640625,2.5,25,2.1640625,25,1.75S24.6640625,1,24.25,1z" fill="#1D1D1B"/><path d="M19.1552734,4.8447266c-0.2929688-0.2929688-0.7675781-0.2929688-1.0605469,0L13,9.9394531   L7.9052734,4.8447266c-0.2929688-0.2929688-0.7675781-0.2929688-1.0605469,0s-0.2929688,0.7675781,0,1.0605469L11.9394531,11   l-5.0947266,5.0947266c-0.2929688,0.2929688-0.2929688,0.7675781,0,1.0605469l5.625,5.625   C12.6162109,22.9267578,12.8076172,23,13,23s0.3837891-0.0732422,0.5302734-0.2197266l5.625-5.625   c0.2929688-0.2929688,0.2929688-0.7675781,0-1.0605469L14.0605469,11l5.0947266-5.0947266   C19.4482422,5.6123047,19.4482422,5.1376953,19.1552734,4.8447266z M17.5644531,16.625L13,21.1894531L8.4355469,16.625   L13,12.0605469L17.5644531,16.625z" fill="#1D1D1B"/></g></svg>